M48
; DRILL file {KiCad 7.0.10} date Mon Jun 16 20:53:49 2025
; FORMAT={-:-/ absolute / inch / decimal}
; #@! TF.CreationDate,2025-06-16T20:53:49-07:00
; #@! TF.GenerationSoftware,Kicad,Pcbnew,7.0.10
; #@! TF.FileFunction,Plated,1,2,PTH
FMAT,2
INCH
; #@! TA.AperFunction,Plated,PTH,ViaDrill
T1C0.0157
; #@! TA.AperFunction,Plated,PTH,ComponentDrill
T2C0.0315
; #@! TA.AperFunction,Plated,PTH,ComponentDrill
T3C0.0340
; #@! TA.AperFunction,Plated,PTH,ComponentDrill
T4C0.0394
; #@! TA.AperFunction,Plated,PTH,ComponentDrill
T5C0.1654
%
G90
G05
T1
X3.622Y-4.2913
X3.7795Y-4.2126
X3.7795Y-4.3701
X3.8583Y-4.2126
X3.8583Y-4.3701
X3.8583Y-5.1181
X3.8794Y-2.7165
X4.065Y-2.3031
X4.252Y-3.9272
X4.252Y-4.2126
X4.2948Y-4.064
X4.4724Y-2.5984
X4.4882Y-3.9764
X4.5472Y-1.8622
X4.5669Y-5.0394
X4.6457Y-5.1969
X4.685Y-1.8819
X4.7244Y-2.6772
X4.7244Y-5.0394
X4.7638Y-3.622
X4.7736Y-2.2972
X4.7736Y-2.435
X4.7736Y-2.4941
X4.7736Y-2.6319
X4.8248Y-2.2972
X4.8248Y-2.435
X4.8248Y-2.4941
X4.8248Y-2.6319
X4.8425Y-5.1181
X4.9803Y-1.8878
X4.9902Y-3.2579
X5.1181Y-1.8878
X5.1181Y-3.8583
X5.1378Y-3.3346
X5.1388Y-3.4498
X5.2067Y-3.8878
X5.2549Y-3.4498
X5.2785Y-4.063
X5.315Y-3.2677
X5.315Y-3.622
X5.315Y-3.8386
X5.5118Y-3.1339
X5.5118Y-3.7638
X5.5413Y-3.248
X5.5413Y-3.4488
X5.5413Y-3.6516
X5.5512Y-1.8878
X5.5512Y-5.0394
X5.6299Y-5.1969
X5.6772Y-3.4488
X5.7087Y-3.2677
X5.7087Y-3.622
X5.7087Y-3.8386
X5.7087Y-5.0394
X5.7874Y-3.5433
X5.7972Y-3.3563
X5.8268Y-5.1181
X5.9055Y-4.1339
X5.9154Y-3.7303
X5.9449Y-1.8878
X6.1024Y-3.8976
X6.122Y-3.3563
X6.2008Y-4.1732
X6.2205Y-3.8583
X6.25Y-2.4075
X6.2627Y-4.063
X6.2648Y-1.9193
X6.5354Y-5.0394
X6.6142Y-5.1969
X6.6929Y-5.0394
X6.811Y-5.1181
X6.9882Y-2.126
X7.0276Y-4.0256
X7.2244Y-3.937
X7.247Y-4.063
X7.313Y-4.2913
T2
X4.036Y-4.631
X4.036Y-4.7097
X4.036Y-4.7884
X4.095Y-4.2924
X4.095Y-4.3711
X4.1738Y-4.2924
X4.1738Y-4.3711
X4.2328Y-4.631
X4.2328Y-4.7097
X4.2328Y-4.7884
X5.0197Y-4.6299
X5.0197Y-4.7087
X5.0197Y-4.7874
X5.0787Y-4.2913
X5.0787Y-4.3701
X5.1575Y-4.2913
X5.1575Y-4.3701
X5.2165Y-4.6299
X5.2165Y-4.7087
X5.2165Y-4.7874
X6.0039Y-4.6299
X6.0039Y-4.7087
X6.0039Y-4.7874
X6.063Y-4.2913
X6.063Y-4.3701
X6.1417Y-4.2913
X6.1417Y-4.3701
X6.2008Y-4.6299
X6.2008Y-4.7087
X6.2008Y-4.7874
X6.6339Y-2.0453
X6.6339Y-2.124
X6.6339Y-2.2028
X6.8307Y-2.0453
X6.8307Y-2.124
X6.8307Y-2.2028
X6.9882Y-4.6299
X6.9882Y-4.7087
X6.9882Y-4.7874
X7.0472Y-4.2913
X7.0472Y-4.3701
X7.126Y-4.2913
X7.126Y-4.3701
X7.185Y-4.6299
X7.185Y-4.7087
X7.185Y-4.7874
T3
X6.1795Y-1.7717
X6.2795Y-1.7717
X6.3795Y-1.7717
T4
X3.8588Y-4.6597
X3.8588Y-4.7597
X4.0839Y-2.7067
X4.1839Y-2.7067
X4.8425Y-4.6587
X4.8425Y-4.7587
X5.8268Y-4.6587
X5.8268Y-4.7587
X6.811Y-4.6587
X6.811Y-4.7587
T5
X3.7402Y-2.2244
T4
G00X3.8976Y-1.811
M15
G01X3.8976Y-1.7323
M16
G05
G00X4.0551Y-1.9567
M15
G01X3.9764Y-1.9567
M16
G05
G00X4.1339Y-1.8209
M15
G01X4.1339Y-1.7224
M16
G05
M30
