%TF.GenerationSoftware,KiCad,Pcbnew,7.0.10*%
%TF.CreationDate,2025-06-16T20:53:53-07:00*%
%TF.ProjectId,x399 Burn In v0_0_7LC,78333939-2042-4757-926e-20496e207630,rev?*%
%TF.SameCoordinates,Original*%
%TF.FileFunction,Soldermask,Bot*%
%TF.FilePolarity,Negative*%
%FSLAX46Y46*%
G04 Gerber Fmt 4.6, Leading zero omitted, Abs format (unit mm)*
G04 Created by KiCad (PCBNEW 7.0.10) date 2025-06-16 20:53:53*
%MOMM*%
%LPD*%
G01*
G04 APERTURE LIST*
G04 Aperture macros list*
%AMRoundRect*
0 Rectangle with rounded corners*
0 $1 Rounding radius*
0 $2 $3 $4 $5 $6 $7 $8 $9 X,Y pos of 4 corners*
0 Add a 4 corners polygon primitive as box body*
4,1,4,$2,$3,$4,$5,$6,$7,$8,$9,$2,$3,0*
0 Add four circle primitives for the rounded corners*
1,1,$1+$1,$2,$3*
1,1,$1+$1,$4,$5*
1,1,$1+$1,$6,$7*
1,1,$1+$1,$8,$9*
0 Add four rect primitives between the rounded corners*
20,1,$1+$1,$2,$3,$4,$5,0*
20,1,$1+$1,$4,$5,$6,$7,0*
20,1,$1+$1,$6,$7,$8,$9,0*
20,1,$1+$1,$8,$9,$2,$3,0*%
G04 Aperture macros list end*
%ADD10R,1.750000X1.750000*%
%ADD11C,1.750000*%
%ADD12R,1.524000X1.524000*%
%ADD13C,1.524000*%
%ADD14O,2.704000X5.204000*%
%ADD15O,2.454000X4.704000*%
%ADD16O,4.704000X2.454000*%
%ADD17RoundRect,0.102000X-0.654000X0.654000X-0.654000X-0.654000X0.654000X-0.654000X0.654000X0.654000X0*%
%ADD18C,1.512000*%
%ADD19R,1.371600X1.371600*%
%ADD20C,1.371600*%
%ADD21C,6.200000*%
G04 APERTURE END LIST*
D10*
%TO.C,D3*%
X98013300Y-118356300D03*
D11*
X98013300Y-120896300D03*
%TD*%
D12*
%TO.C,U4*%
X129000000Y-109000000D03*
D13*
X129000000Y-111000000D03*
X131000000Y-111000000D03*
X131000000Y-109000000D03*
%TD*%
D10*
%TO.C,D2*%
X106270000Y-68750375D03*
D11*
X103730000Y-68750375D03*
%TD*%
D14*
%TO.C,J1*%
X105000000Y-45000000D03*
D15*
X99000000Y-45000000D03*
D16*
X102000000Y-49700000D03*
%TD*%
D12*
%TO.C,U3*%
X104013300Y-109026300D03*
D13*
X104013300Y-111026300D03*
X106013300Y-111026300D03*
X106013300Y-109026300D03*
%TD*%
D17*
%TO.C,SW4*%
X182500000Y-117600000D03*
D18*
X182500000Y-119600000D03*
X182500000Y-121600000D03*
X177500000Y-117600000D03*
X177500000Y-119600000D03*
X177500000Y-121600000D03*
%TD*%
D19*
%TO.C,DC-DC1*%
X156960000Y-45000000D03*
D20*
X159500000Y-45000000D03*
X162040000Y-45000000D03*
%TD*%
D12*
%TO.C,U5*%
X154000000Y-109000000D03*
D13*
X154000000Y-111000000D03*
X156000000Y-111000000D03*
X156000000Y-109000000D03*
%TD*%
D17*
%TO.C,SW5*%
X173500000Y-51950000D03*
D18*
X173500000Y-53950000D03*
X173500000Y-55950000D03*
X168500000Y-51950000D03*
X168500000Y-53950000D03*
X168500000Y-55950000D03*
%TD*%
D17*
%TO.C,SW3*%
X157500000Y-117600000D03*
D18*
X157500000Y-119600000D03*
X157500000Y-121600000D03*
X152500000Y-117600000D03*
X152500000Y-119600000D03*
X152500000Y-121600000D03*
%TD*%
D21*
%TO.C,M1*%
X95000000Y-56500000D03*
%TD*%
D17*
%TO.C,SW1*%
X107513300Y-117626300D03*
D18*
X107513300Y-119626300D03*
X107513300Y-121626300D03*
X102513300Y-117626300D03*
X102513300Y-119626300D03*
X102513300Y-121626300D03*
%TD*%
D10*
%TO.C,D6*%
X173000000Y-118330000D03*
D11*
X173000000Y-120870000D03*
%TD*%
D17*
%TO.C,SW2*%
X132500000Y-117600000D03*
D18*
X132500000Y-119600000D03*
X132500000Y-121600000D03*
X127500000Y-117600000D03*
X127500000Y-119600000D03*
X127500000Y-121600000D03*
%TD*%
D10*
%TO.C,D4*%
X123000000Y-118330000D03*
D11*
X123000000Y-120870000D03*
%TD*%
D10*
%TO.C,D5*%
X148000000Y-118330000D03*
D11*
X148000000Y-120870000D03*
%TD*%
D12*
%TO.C,U6*%
X179000000Y-109000000D03*
D13*
X179000000Y-111000000D03*
X181000000Y-111000000D03*
X181000000Y-109000000D03*
%TD*%
M02*
